# xmcd CD database file
#
# Track frame offsets:
#	150
#	11127
#	29022
#	43874
#	59156
#	70635
#	86452
#	104322
#	117457
#	135489
#
# Disc length: 2034 seconds
#
# Revision: 1
# Processed by: cddbd v1.5.2PL0 Copyright (c) Steve Scherf et al.
# Submitted via: CDex 1.51
#
DISCID=8d07f00a
DTITLE=Various Artist - Christmas With Country's Finest Vol. 2
DYEAR=2000
DGENRE=Christmas
TTITLE0=Jingle Bells - Porter Wagoner
TTITLE1=The Little Dummer Boy - Glen Campbell
TTITLE2=Away In A Manger - Loretta Lynn
TTITLE3=O Christmas Tree - Tom T. Hall
TTITLE4=If We Make It Through December - Merle Haggard
TTITLE5=What Child Is This - Crystal Gayle
TTITLE6=The First Noel - Willie Nelson
TTITLE7=God Rest Ye Merry Gentlemen - Roy Clark
TTITLE8=Silent Night - Brenda Lee
TTITLE9=O Little Town Of Bethlehem - Charley Pride
EXTD=YEAR: 2000
EXTT0=
EXTT1=
EXTT2=
EXTT3=
EXTT4=
EXTT5=
EXTT6=
EXTT7=
EXTT8=
EXTT9=
PLAYORDER=
